<?xml version="1.0" encoding="utf-8"?>
<!-- Generator: Adobe Illustrator 25.0.1, SVG Export Plug-In . SVG Version: 6.00 Build 0)  -->
<svg version="1.1" id="Слой_1" xmlns="http://www.w3.org/2000/svg" xmlns:xlink="http://www.w3.org/1999/xlink" x="0px" y="0px"
	 viewBox="0 0 16 16" style="enable-background:new 0 0 16 16;" xml:space="preserve">
<style type="text/css">
	.st0{fill:#FAFAFA;}
</style>
<path class="st0" d="M7.5,1C3.9,1,1,3.9,1,7.5S3.9,14,7.5,14S14,11.1,14,7.5S11.1,1,7.5,1z M7.5,2c3,0,5.5,2.5,5.5,5.5
	c0,2.8-2,5-4.7,5.4V9.1h1.6l0.2-1.6H8.3V6.7c0-0.7,0.2-1.2,0.8-1.2h1V4C10,4,9.6,4,8.9,4C7.4,4,6.6,4.7,6.6,6.5v1H5.1v1.6h1.5v3.8
	C4,12.5,2,10.2,2,7.5C2,4.5,4.5,2,7.5,2z"/>
</svg>
