<?xml version="1.0" encoding="utf-8"?>
<!-- Generator: Adobe Illustrator 25.0.1, SVG Export Plug-In . SVG Version: 6.00 Build 0)  -->
<svg version="1.1" id="Слой_1" xmlns="http://www.w3.org/2000/svg" xmlns:xlink="http://www.w3.org/1999/xlink" x="0px" y="0px"
	 viewBox="0 0 16 16" style="enable-background:new 0 0 16 16;" xml:space="preserve">
<style type="text/css">
	.st0{fill:#FAFAFA;}
</style>
<path class="st0" d="M3.5,2C2.7,2,2,2.7,2,3.5v9C2,13.3,2.7,14,3.5,14h9c0.8,0,1.5-0.7,1.5-1.5v-9C14,2.7,13.3,2,12.5,2H3.5z M3.5,3
	h9C12.8,3,13,3.2,13,3.5v9c0,0.3-0.2,0.5-0.5,0.5h-9C3.2,13,3,12.8,3,12.5v-9C3,3.2,3.2,3,3.5,3z M8,4v5.5C8,10.3,7.3,11,6.5,11
	S5,10.3,5,9.5S5.7,8,6.5,8C6.7,8,6.8,8,7,8.1v-1C6.8,7,6.7,7,6.5,7C5.1,7,4,8.1,4,9.5S5.1,12,6.5,12S9,10.9,9,9.5V6.2
	c0.2,0.1,0.3,0.3,0.5,0.4C10.3,7,11.2,7,12,7V6c-0.8,0-1.6,0-2.1-0.3S9,5.1,9,4H8z"/>
</svg>
