<?xml version="1.0" encoding="utf-8"?>
<!-- Generator: Adobe Illustrator 25.0.1, SVG Export Plug-In . SVG Version: 6.00 Build 0)  -->
<svg version="1.1" id="Слой_1" xmlns="http://www.w3.org/2000/svg" xmlns:xlink="http://www.w3.org/1999/xlink" x="0px" y="0px"
	 viewBox="0 0 16 16" style="enable-background:new 0 0 16 16;" xml:space="preserve">
<style type="text/css">
	.st0{fill:#FAFAFA;}
</style>
<path class="st0" d="M15,3.3c-0.5,0.2-1.1,0.4-1.6,0.4c0.6-0.3,1.1-0.9,1.3-1.5c-0.6,0.3-1.2,0.6-1.8,0.7C12.3,2.3,11.5,2,10.7,2
	C9.1,2,7.8,3.2,7.8,4.8c0,0.2,0,0.4,0.1,0.6c-3,0-5.1-1.7-6.5-3.4C1.1,2.4,1,2.9,1,3.4c0,1,0.5,1.8,1.3,2.3C1.8,5.7,1.4,5.6,1,5.4
	c0,0,0,0,0,0.1c0,1.4,1,2.5,2.3,2.7C3,8.2,2.8,8.3,2.5,8.3c-0.2,0-0.3,0-0.5-0.1c0.4,1.1,2,2.4,3.3,2.4c-1,0.7-1.9,1.4-3.8,1.4
	c-0.2,0,0,0-0.5,0c1.3,0.8,2.8,1,4.4,1c5.3,0,8.2-4.2,8.2-7.9c0-0.1,0-0.2,0-0.3C14.1,4.4,14.6,3.9,15,3.3"/>
</svg>
