<?xml version="1.0" encoding="utf-8"?>
<!-- Generator: Adobe Illustrator 25.0.1, SVG Export Plug-In . SVG Version: 6.00 Build 0)  -->
<svg version="1.1" id="Слой_1" xmlns="http://www.w3.org/2000/svg" xmlns:xlink="http://www.w3.org/1999/xlink" x="0px" y="0px"
	 viewBox="0 0 16 16" style="enable-background:new 0 0 16 16;" xml:space="preserve">
<style type="text/css">
	.st0{fill:#FAFAFA;}
</style>
<path class="st0" d="M4.8,1C2.7,1,1,2.7,1,4.8v5.5C1,12.3,2.7,14,4.8,14h5.5c2.1,0,3.8-1.7,3.8-3.8V4.8C14,2.7,12.3,1,10.2,1H4.8z
	 M4.8,2h5.5C11.8,2,13,3.2,13,4.8v5.5c0,1.5-1.2,2.8-2.8,2.8H4.8C3.2,13,2,11.8,2,10.2V4.8C2,3.2,3.2,2,4.8,2z M11.5,3
	C11.2,3,11,3.2,11,3.5S11.2,4,11.5,4S12,3.8,12,3.5S11.8,3,11.5,3z M7.5,4C5.6,4,4,5.6,4,7.5S5.6,11,7.5,11S11,9.4,11,7.5
	S9.4,4,7.5,4z M7.5,5C8.9,5,10,6.1,10,7.5S8.9,10,7.5,10S5,8.9,5,7.5S6.1,5,7.5,5z"/>
</svg>
