<svg id="Слой_1" data-name="Слой 1" xmlns="http://www.w3.org/2000/svg" viewBox="0 0 557.7 643.95"><defs><style>.cls-1{fill:#fff;}</style></defs><polygon class="cls-1" points="557.7 160.99 557.7 201.37 157.27 432.55 121.84 412.06 121.84 365.77 517.13 137.56 557.7 160.99"/><polygon class="cls-1" points="352.32 42.42 121.84 175.49 77.22 201.25 0 245.83 0 160.99 77.22 116.41 121.84 90.64 278.85 0 352.32 42.42"/><polygon class="cls-1" points="557.7 252.86 557.7 482.97 528.7 499.73 484.08 525.46 278.85 643.96 199.73 598.3 277.4 553.42 277.44 553.42 322.05 527.66 484.08 434.11 484.08 382.58 277.44 501.89 232.78 527.66 155.11 572.5 121.84 553.31 77.22 527.54 0 482.97 0 297.37 77.22 252.75 121.84 227.02 396.93 68.19 472.52 111.8 121.84 314.28 77.22 340.05 77.22 437.87 112.66 458.32 121.84 463.63 157.23 484.04 157.27 484.04 201.89 458.28 557.7 252.86"/></svg>